<?xml version="1.0" encoding="UTF-8"?> <svg xmlns="http://www.w3.org/2000/svg" xmlns:xlink="http://www.w3.org/1999/xlink" width="500" zoomAndPan="magnify" viewBox="0 0 375 374.999991" height="500" preserveAspectRatio="xMidYMid meet" version="1.0"><defs><g></g><clipPath id="89df2404be"><path d="M 34.722656 37.5 L 340.277344 37.5 L 340.277344 343.058594 L 34.722656 343.058594 Z M 34.722656 37.5 " clip-rule="nonzero"></path></clipPath><clipPath id="01c3d888e5"><path d="M 187.5 37.5 C 103.121094 37.5 34.722656 105.902344 34.722656 190.277344 C 34.722656 274.65625 103.121094 343.058594 187.5 343.058594 C 271.878906 343.058594 340.277344 274.65625 340.277344 190.277344 C 340.277344 105.902344 271.878906 37.5 187.5 37.5 Z M 187.5 37.5 " clip-rule="nonzero"></path></clipPath><clipPath id="845e926eda"><path d="M 122.308594 77.796875 L 252.808594 77.796875 L 252.808594 212.046875 L 122.308594 212.046875 Z M 122.308594 77.796875 " clip-rule="nonzero"></path></clipPath><clipPath id="8b9c3e94b8"><path d="M 167.121094 183 L 206.871094 183 L 206.871094 213.746094 L 167.121094 213.746094 Z M 167.121094 183 " clip-rule="nonzero"></path></clipPath></defs><g clip-path="url(#89df2404be)"><g clip-path="url(#01c3d888e5)"><path fill="#0047ff" d="M 34.722656 37.5 L 340.277344 37.5 L 340.277344 343.058594 L 34.722656 343.058594 Z M 34.722656 37.5 " fill-opacity="1" fill-rule="nonzero"></path></g></g><g clip-path="url(#845e926eda)"><path fill="#ffffff" d="M 155.410156 121.554688 L 123.109375 208.039062 C 122.324219 210.148438 123.878906 212.390625 126.128906 212.390625 L 153.601562 212.390625 C 154.96875 212.390625 156.183594 211.53125 156.640625 210.242188 L 164.3125 188.523438 L 173.597656 160.710938 C 173.816406 160.054688 173.816406 159.347656 173.601562 158.6875 L 161.492188 121.683594 C 160.542969 118.785156 156.476562 118.703125 155.410156 121.554688 Z M 201.023438 77.796875 L 176.511719 77.796875 C 174.296875 77.796875 172.742188 79.980469 173.46875 82.074219 L 187.230469 121.757812 L 187.25 121.703125 L 209.835938 188.523438 L 217.664062 210.261719 C 218.125 211.539062 219.339844 212.390625 220.699219 212.390625 L 248.855469 212.390625 C 251.105469 212.390625 252.660156 210.148438 251.875 208.042969 L 204.042969 79.894531 C 203.570312 78.632812 202.367188 77.796875 201.023438 77.796875 " fill-opacity="1" fill-rule="nonzero"></path></g><g fill="#ffffff" fill-opacity="1"><g transform="translate(85.214153, 293.534591)"><g><path d="M 2.03125 -24.921875 L 10.4375 -24.921875 L 10.4375 0 L 2.03125 0 Z M 2.03125 -24.921875 "></path></g></g></g><g fill="#ffffff" fill-opacity="1"><g transform="translate(101.23614, 293.534591)"><g><path d="M 26.59375 -24.921875 L 26.59375 0 L 19.6875 0 L 10.21875 -11.328125 L 10.21875 0 L 2.03125 0 L 2.03125 -24.921875 L 8.9375 -24.921875 L 18.40625 -13.609375 L 18.40625 -24.921875 Z M 26.59375 -24.921875 "></path></g></g></g><g fill="#ffffff" fill-opacity="1"><g transform="translate(133.422163, 293.534591)"><g><path d="M 11.328125 0.5625 C 9.253906 0.5625 7.238281 0.332031 5.28125 -0.125 C 3.320312 -0.582031 1.71875 -1.207031 0.46875 -2 L 3.171875 -8.125 C 4.359375 -7.4375 5.6875 -6.882812 7.15625 -6.46875 C 8.625 -6.050781 10.035156 -5.84375 11.390625 -5.84375 C 12.554688 -5.84375 13.390625 -5.953125 13.890625 -6.171875 C 14.390625 -6.398438 14.640625 -6.738281 14.640625 -7.1875 C 14.640625 -7.707031 14.3125 -8.097656 13.65625 -8.359375 C 13 -8.628906 11.925781 -8.914062 10.4375 -9.21875 C 8.507812 -9.625 6.90625 -10.054688 5.625 -10.515625 C 4.34375 -10.984375 3.226562 -11.742188 2.28125 -12.796875 C 1.332031 -13.859375 0.859375 -15.289062 0.859375 -17.09375 C 0.859375 -18.65625 1.296875 -20.078125 2.171875 -21.359375 C 3.046875 -22.640625 4.351562 -23.648438 6.09375 -24.390625 C 7.84375 -25.128906 9.96875 -25.5 12.46875 -25.5 C 14.175781 -25.5 15.851562 -25.3125 17.5 -24.9375 C 19.15625 -24.570312 20.609375 -24.035156 21.859375 -23.328125 L 19.34375 -17.234375 C 16.894531 -18.472656 14.578125 -19.09375 12.390625 -19.09375 C 10.234375 -19.09375 9.15625 -18.566406 9.15625 -17.515625 C 9.15625 -17.015625 9.472656 -16.640625 10.109375 -16.390625 C 10.753906 -16.148438 11.8125 -15.882812 13.28125 -15.59375 C 15.175781 -15.238281 16.773438 -14.828125 18.078125 -14.359375 C 19.390625 -13.898438 20.523438 -13.148438 21.484375 -12.109375 C 22.453125 -11.066406 22.9375 -9.640625 22.9375 -7.828125 C 22.9375 -6.265625 22.492188 -4.847656 21.609375 -3.578125 C 20.734375 -2.304688 19.421875 -1.296875 17.671875 -0.546875 C 15.929688 0.191406 13.816406 0.5625 11.328125 0.5625 Z M 11.328125 0.5625 "></path></g></g></g><g fill="#ffffff" fill-opacity="1"><g transform="translate(160.374455, 293.534591)"><g><path d="M 2.03125 -24.921875 L 10.4375 -24.921875 L 10.4375 0 L 2.03125 0 Z M 2.03125 -24.921875 "></path></g></g></g><g fill="#ffffff" fill-opacity="1"><g transform="translate(176.396446, 293.534591)"><g><path d="M 18.515625 -13.140625 L 25.8125 -13.140625 L 25.8125 -2.59375 C 24.34375 -1.570312 22.632812 -0.789062 20.6875 -0.25 C 18.738281 0.289062 16.828125 0.5625 14.953125 0.5625 C 12.296875 0.5625 9.910156 0.015625 7.796875 -1.078125 C 5.679688 -2.179688 4.023438 -3.722656 2.828125 -5.703125 C 1.628906 -7.691406 1.03125 -9.945312 1.03125 -12.46875 C 1.03125 -14.976562 1.628906 -17.222656 2.828125 -19.203125 C 4.023438 -21.191406 5.695312 -22.738281 7.84375 -23.84375 C 10 -24.945312 12.429688 -25.5 15.140625 -25.5 C 17.578125 -25.5 19.765625 -25.085938 21.703125 -24.265625 C 23.640625 -23.453125 25.25 -22.257812 26.53125 -20.6875 L 21.15625 -15.953125 C 19.582031 -17.773438 17.71875 -18.6875 15.5625 -18.6875 C 13.707031 -18.6875 12.234375 -18.128906 11.140625 -17.015625 C 10.046875 -15.898438 9.5 -14.382812 9.5 -12.46875 C 9.5 -10.59375 10.039062 -9.082031 11.125 -7.9375 C 12.207031 -6.800781 13.648438 -6.234375 15.453125 -6.234375 C 16.523438 -6.234375 17.546875 -6.4375 18.515625 -6.84375 Z M 18.515625 -13.140625 "></path></g></g></g><g fill="#ffffff" fill-opacity="1"><g transform="translate(207.336338, 293.534591)"><g><path d="M 26.59375 -24.921875 L 26.59375 0 L 18.203125 0 L 18.203125 -9.1875 L 10.4375 -9.1875 L 10.4375 0 L 2.03125 0 L 2.03125 -24.921875 L 10.4375 -24.921875 L 10.4375 -16.09375 L 18.203125 -16.09375 L 18.203125 -24.921875 Z M 26.59375 -24.921875 "></path></g></g></g><g fill="#ffffff" fill-opacity="1"><g transform="translate(239.522363, 293.534591)"><g><path d="M 7.4375 -18.40625 L 0.140625 -18.40625 L 0.140625 -24.921875 L 23.140625 -24.921875 L 23.140625 -18.40625 L 15.84375 -18.40625 L 15.84375 0 L 7.4375 0 Z M 7.4375 -18.40625 "></path></g></g></g><g fill="#ffffff" fill-opacity="1"><g transform="translate(266.367837, 293.534591)"><g><path d="M 11.328125 0.5625 C 9.253906 0.5625 7.238281 0.332031 5.28125 -0.125 C 3.320312 -0.582031 1.71875 -1.207031 0.46875 -2 L 3.171875 -8.125 C 4.359375 -7.4375 5.6875 -6.882812 7.15625 -6.46875 C 8.625 -6.050781 10.035156 -5.84375 11.390625 -5.84375 C 12.554688 -5.84375 13.390625 -5.953125 13.890625 -6.171875 C 14.390625 -6.398438 14.640625 -6.738281 14.640625 -7.1875 C 14.640625 -7.707031 14.3125 -8.097656 13.65625 -8.359375 C 13 -8.628906 11.925781 -8.914062 10.4375 -9.21875 C 8.507812 -9.625 6.90625 -10.054688 5.625 -10.515625 C 4.34375 -10.984375 3.226562 -11.742188 2.28125 -12.796875 C 1.332031 -13.859375 0.859375 -15.289062 0.859375 -17.09375 C 0.859375 -18.65625 1.296875 -20.078125 2.171875 -21.359375 C 3.046875 -22.640625 4.351562 -23.648438 6.09375 -24.390625 C 7.84375 -25.128906 9.96875 -25.5 12.46875 -25.5 C 14.175781 -25.5 15.851562 -25.3125 17.5 -24.9375 C 19.15625 -24.570312 20.609375 -24.035156 21.859375 -23.328125 L 19.34375 -17.234375 C 16.894531 -18.472656 14.578125 -19.09375 12.390625 -19.09375 C 10.234375 -19.09375 9.15625 -18.566406 9.15625 -17.515625 C 9.15625 -17.015625 9.472656 -16.640625 10.109375 -16.390625 C 10.753906 -16.148438 11.8125 -15.882812 13.28125 -15.59375 C 15.175781 -15.238281 16.773438 -14.828125 18.078125 -14.359375 C 19.390625 -13.898438 20.523438 -13.148438 21.484375 -12.109375 C 22.453125 -11.066406 22.9375 -9.640625 22.9375 -7.828125 C 22.9375 -6.265625 22.492188 -4.847656 21.609375 -3.578125 C 20.734375 -2.304688 19.421875 -1.296875 17.671875 -0.546875 C 15.929688 0.191406 13.816406 0.5625 11.328125 0.5625 Z M 11.328125 0.5625 "></path></g></g></g><g fill="#ffffff" fill-opacity="1"><g transform="translate(135.528123, 253.244008)"><g><path d="M 19.015625 -4.34375 L 9.546875 -4.34375 L 7.875 0 L -0.671875 0 L 10.21875 -24.921875 L 18.484375 -24.921875 L 29.375 0 L 20.6875 0 Z M 16.703125 -10.390625 L 14.28125 -16.671875 L 11.859375 -10.390625 Z M 16.703125 -10.390625 "></path></g></g></g><g fill="#ffffff" fill-opacity="1"><g transform="translate(167.785347, 253.244008)"><g><path d="M 11.328125 0.5625 C 9.253906 0.5625 7.238281 0.332031 5.28125 -0.125 C 3.320312 -0.582031 1.71875 -1.207031 0.46875 -2 L 3.171875 -8.125 C 4.359375 -7.4375 5.6875 -6.882812 7.15625 -6.46875 C 8.625 -6.050781 10.035156 -5.84375 11.390625 -5.84375 C 12.554688 -5.84375 13.390625 -5.953125 13.890625 -6.171875 C 14.390625 -6.398438 14.640625 -6.738281 14.640625 -7.1875 C 14.640625 -7.707031 14.3125 -8.097656 13.65625 -8.359375 C 13 -8.628906 11.925781 -8.914062 10.4375 -9.21875 C 8.507812 -9.625 6.90625 -10.054688 5.625 -10.515625 C 4.34375 -10.984375 3.226562 -11.742188 2.28125 -12.796875 C 1.332031 -13.859375 0.859375 -15.289062 0.859375 -17.09375 C 0.859375 -18.65625 1.296875 -20.078125 2.171875 -21.359375 C 3.046875 -22.640625 4.351562 -23.648438 6.09375 -24.390625 C 7.84375 -25.128906 9.96875 -25.5 12.46875 -25.5 C 14.175781 -25.5 15.851562 -25.3125 17.5 -24.9375 C 19.15625 -24.570312 20.609375 -24.035156 21.859375 -23.328125 L 19.34375 -17.234375 C 16.894531 -18.472656 14.578125 -19.09375 12.390625 -19.09375 C 10.234375 -19.09375 9.15625 -18.566406 9.15625 -17.515625 C 9.15625 -17.015625 9.472656 -16.640625 10.109375 -16.390625 C 10.753906 -16.148438 11.8125 -15.882812 13.28125 -15.59375 C 15.175781 -15.238281 16.773438 -14.828125 18.078125 -14.359375 C 19.390625 -13.898438 20.523438 -13.148438 21.484375 -12.109375 C 22.453125 -11.066406 22.9375 -9.640625 22.9375 -7.828125 C 22.9375 -6.265625 22.492188 -4.847656 21.609375 -3.578125 C 20.734375 -2.304688 19.421875 -1.296875 17.671875 -0.546875 C 15.929688 0.191406 13.816406 0.5625 11.328125 0.5625 Z M 11.328125 0.5625 "></path></g></g></g><g fill="#ffffff" fill-opacity="1"><g transform="translate(194.737643, 253.244008)"><g><path d="M 2.03125 -24.921875 L 10.4375 -24.921875 L 10.4375 0 L 2.03125 0 Z M 2.03125 -24.921875 "></path></g></g></g><g fill="#ffffff" fill-opacity="1"><g transform="translate(210.759628, 253.244008)"><g><path d="M 19.015625 -4.34375 L 9.546875 -4.34375 L 7.875 0 L -0.671875 0 L 10.21875 -24.921875 L 18.484375 -24.921875 L 29.375 0 L 20.6875 0 Z M 16.703125 -10.390625 L 14.28125 -16.671875 L 11.859375 -10.390625 Z M 16.703125 -10.390625 "></path></g></g></g><g clip-path="url(#8b9c3e94b8)"><path fill="#ffffff" d="M 196.789062 210.199219 L 196.433594 209.84375 L 196.472656 209.527344 L 196.828125 209.488281 L 197.496094 209.449219 L 197.890625 209.527344 L 198.207031 209.449219 L 198.523438 209.054688 L 198.445312 208.976562 L 198.050781 209.25 L 197.578125 209.25 L 197.0625 209.210938 L 196.746094 209.09375 L 196.394531 209.371094 L 196.3125 209.566406 L 196.117188 210.160156 L 196.078125 210.476562 L 195.917969 210.75 L 196.039062 211.027344 L 196.195312 211.027344 L 196.273438 211.421875 L 196.15625 211.777344 L 196.3125 211.894531 L 196.550781 211.855469 C 196.550781 211.5 196.511719 211.144531 196.511719 210.828125 L 196.789062 210.710938 L 196.746094 211.105469 L 197.023438 211.34375 L 196.984375 211.5 L 197.101562 211.617188 L 197.496094 211.460938 L 197.300781 211.777344 L 197.457031 211.933594 L 197.65625 211.816406 L 197.65625 211.539062 L 197.300781 211.027344 L 197.378906 210.910156 L 196.984375 210.394531 L 197.339844 210.238281 L 197.496094 210 L 197.65625 210.039062 L 197.695312 209.84375 L 196.945312 209.960938 Z M 196.945312 213.039062 L 196.707031 212.921875 L 196.351562 213 L 196.351562 213.15625 L 196.867188 213.195312 L 197.457031 213.078125 L 197.496094 212.84375 L 197.183594 213 Z M 196.867188 200.296875 L 197.101562 199.585938 L 197.183594 199.3125 L 196.984375 199.191406 L 196.667969 199.507812 L 196.433594 199.980469 L 196.472656 200.296875 L 196.667969 200.652344 Z M 198.601562 204.753906 L 198.484375 204.597656 L 198.089844 204.597656 L 198.324219 204.914062 L 198.324219 205.070312 L 198.089844 205.03125 L 198.167969 205.265625 L 198.285156 205.308594 L 198.285156 205.582031 L 198.484375 205.503906 L 198.40625 205.265625 L 198.40625 205.148438 L 198.71875 205.265625 Z M 196.351562 203.414062 L 196.433594 203.609375 L 196.628906 203.847656 L 196.667969 203.691406 L 196.789062 203.769531 L 196.667969 203.886719 L 196.628906 204.042969 L 196.828125 204.125 L 197.183594 204.042969 L 197.417969 204.28125 L 197.535156 204.125 L 197.695312 204.320312 L 198.011719 204.519531 L 198.050781 204.320312 L 197.929688 204.320312 L 197.972656 204.085938 L 197.457031 203.847656 L 197.300781 203.925781 L 197.101562 203.847656 L 196.984375 203.53125 L 197.0625 203.214844 L 197.300781 203.097656 L 197.417969 202.742188 L 197.300781 202.425781 L 197.378906 202.269531 L 197.339844 202.152344 L 197.222656 202.269531 L 196.984375 202.152344 L 196.746094 202.152344 L 196.628906 202.546875 L 196.589844 203.175781 L 196.433594 203.058594 Z M 195.957031 212.921875 L 195.722656 212.960938 L 195.5625 212.84375 L 195.445312 213 L 195.210938 213 L 195.089844 213.238281 L 195.289062 213.238281 C 195.523438 213.195312 195.761719 213.15625 196.039062 213.117188 Z M 190.75 211.34375 L 190.871094 210.828125 L 190.671875 210.59375 L 190.398438 210.554688 L 190.238281 210.316406 L 190.160156 210.039062 L 190.003906 210.039062 L 189.765625 209.882812 L 189.921875 209.566406 L 189.609375 209.371094 L 189.449219 209.054688 L 189.132812 208.777344 L 188.738281 208.777344 L 188.34375 208.34375 L 188.109375 208.1875 L 187.792969 207.910156 L 187.4375 207.515625 C 187.160156 207.476562 186.847656 207.4375 186.570312 207.4375 L 186.609375 207.632812 L 187.042969 208.070312 L 187.359375 208.304688 L 187.554688 208.660156 L 187.910156 208.898438 L 188.070312 209.210938 L 188.1875 209.566406 L 188.542969 209.882812 L 188.859375 210.433594 L 189.054688 210.75 L 189.371094 211.066406 L 189.527344 211.304688 L 190.042969 211.617188 L 190.355469 211.933594 L 190.792969 211.933594 Z M 197.773438 206.175781 L 197.578125 206.292969 L 197.339844 206.410156 L 197.183594 206.765625 L 197.261719 206.886719 L 197.535156 206.648438 L 197.734375 206.648438 L 197.851562 206.492188 L 198.089844 206.6875 L 197.972656 206.886719 L 198.089844 207.160156 L 198.5625 207.398438 L 198.679688 207.199219 L 198.5625 206.925781 L 198.761719 206.726562 L 198.917969 207.121094 L 199.035156 206.765625 C 198.996094 206.492188 198.957031 206.214844 198.917969 205.9375 L 198.601562 205.742188 L 198.640625 206.054688 L 198.367188 206.054688 L 198.285156 206.253906 L 197.972656 206.371094 Z M 193.59375 212.644531 L 193.433594 212.367188 L 192.722656 212.210938 L 192.644531 212.367188 L 191.894531 212.328125 L 191.816406 212.210938 L 191.660156 212.171875 L 191.34375 212.011719 L 190.871094 211.972656 L 190.59375 212.367188 L 190.949219 212.40625 L 191.027344 212.566406 L 191.738281 212.722656 L 191.894531 212.683594 L 192.171875 212.722656 L 192.644531 212.882812 L 193 212.960938 L 193.394531 213 L 193.75 213 L 194.183594 213.15625 L 194.65625 213 L 194.183594 212.761719 Z M 196 205.621094 L 196.273438 205.386719 L 196.195312 205.070312 L 196 205.464844 L 195.761719 205.742188 L 195.484375 205.976562 L 195.289062 206.292969 L 195.800781 205.898438 Z M 180.808594 205.9375 L 180.535156 205.703125 L 180.335938 206.371094 L 180.414062 206.964844 L 180.613281 207.28125 L 180.96875 207.199219 L 181.125 207.082031 L 181.203125 206.648438 L 181.007812 206.214844 Z M 195.40625 209.605469 L 195.523438 209.332031 L 196 209.292969 L 195.5625 208.9375 L 195.644531 208.738281 L 195.367188 208.34375 L 195.605469 207.988281 L 195.878906 207.871094 L 195.800781 207.675781 L 196.078125 207.632812 L 196.117188 207.476562 C 195.917969 207.398438 195.722656 207.320312 195.523438 207.238281 L 195.523438 207.082031 L 195.328125 206.886719 L 195.171875 206.886719 L 194.972656 207.199219 L 194.578125 207.476562 L 194.222656 207.714844 L 194.066406 207.871094 L 193.867188 208.109375 L 193.59375 208.421875 L 193.117188 208.503906 L 192.960938 208.582031 L 192.882812 208.9375 L 192.566406 209.015625 L 192.289062 208.898438 L 192.054688 209.171875 L 192.015625 209.449219 L 192.054688 209.804688 L 192.25 210.160156 L 192.449219 210.277344 L 192.527344 210.828125 L 192.84375 210.871094 L 193.117188 210.828125 L 193.277344 211.027344 L 193.75 210.871094 L 193.945312 210.988281 L 194.222656 211.027344 L 194.382812 211.265625 L 194.816406 211.066406 L 194.855469 211.222656 L 195.011719 210.632812 L 195.011719 210.238281 L 195.40625 209.960938 Z M 192.644531 201.796875 L 192.804688 201.597656 L 192.722656 201.441406 L 192.488281 201.441406 L 192.054688 201.558594 L 191.855469 201.757812 L 191.855469 202.113281 L 192.171875 202.230469 L 192.527344 202.03125 Z M 196.351562 213.355469 L 196 213.433594 L 196.511719 213.710938 L 196.667969 213.710938 L 196.707031 213.589844 L 196.550781 213.472656 Z M 201.679688 195.5625 L 201.875 195.445312 L 202.035156 195.601562 L 202.269531 195.328125 L 202.230469 195.128906 L 201.957031 195.011719 L 201.757812 195.246094 L 201.519531 195.207031 L 201.285156 195.484375 L 201.285156 195.722656 L 201.5625 195.839844 Z M 204.757812 210.671875 L 204.320312 210.59375 C 204.125 210.476562 203.886719 210.394531 203.691406 210.316406 L 203.335938 210.316406 L 202.863281 210.554688 L 202.546875 210.988281 L 202.152344 210.75 L 202.035156 210.121094 L 201.957031 209.960938 L 201.324219 209.804688 L 201.125 209.921875 L 200.574219 210 L 200.730469 210.199219 L 201.085938 210.277344 L 201.246094 210.515625 L 201.835938 210.515625 L 201.875 210.632812 L 201.601562 210.632812 L 201.167969 210.789062 L 201.480469 210.988281 L 201.480469 211.144531 L 201.5625 211.304688 L 201.71875 211.265625 L 201.835938 211.027344 L 202.429688 211.382812 L 202.746094 211.421875 L 203.535156 211.777344 L 203.730469 212.132812 L 203.847656 212.566406 L 203.613281 212.683594 L 203.414062 213 L 203.929688 213 L 204.007812 212.882812 L 204.402344 212.960938 L 204.757812 213.277344 C 204.757812 212.40625 204.757812 211.539062 204.757812 210.671875 Z M 200.140625 210.75 L 199.667969 210.75 L 199.589844 210.988281 L 199.863281 210.988281 L 200.101562 210.949219 L 200.417969 210.988281 L 200.773438 211.144531 L 200.613281 210.828125 Z M 202.074219 211.933594 L 201.996094 212.09375 L 202.035156 212.40625 L 202.230469 212.132812 L 202.230469 211.933594 L 202.191406 211.816406 Z M 204.480469 191.617188 L 204.320312 191.933594 L 204.402344 192.523438 L 204.164062 193.15625 C 203.886719 193.394531 203.613281 193.628906 203.335938 193.867188 L 203.058594 193.628906 L 202.625 194.496094 L 202.230469 194.378906 L 201.441406 194.539062 L 201.125 194.851562 L 200.730469 195.089844 L 200.535156 195.40625 L 200.140625 195.5625 L 200.296875 195.878906 L 200.535156 195.996094 L 200.457031 196.429688 L 200.652344 196.628906 L 200.929688 196.429688 L 201.207031 195.640625 L 200.8125 195.285156 L 201.285156 195.285156 L 201.757812 195.050781 L 202.46875 194.933594 L 202.46875 195.285156 L 202.746094 195.484375 L 203.296875 194.933594 L 204.007812 194.890625 L 204.519531 194.65625 L 204.714844 194.300781 L 204.597656 194.0625 L 204.757812 193.667969 L 204.757812 193.15625 L 205.109375 192.644531 L 205.109375 192.210938 L 204.875 191.5 Z M 206.492188 189.882812 L 206.214844 190.117188 L 205.941406 190 L 205.625 189.804688 L 205.152344 189.210938 L 205.03125 189.644531 L 204.914062 190.394531 L 204.480469 190.433594 L 204.28125 190.867188 L 204.320312 191.421875 L 204.757812 191.421875 L 204.953125 190.828125 L 205.585938 191.183594 L 205.941406 190.632812 L 206.53125 190.472656 Z M 199.746094 209.921875 L 199.589844 209.726562 L 199.667969 209.488281 L 199.863281 209.527344 L 199.902344 209.171875 L 199.863281 209.015625 L 199.628906 208.976562 L 199.589844 208.738281 L 199.46875 208.898438 L 199.390625 209.210938 L 199.507812 209.726562 L 199.667969 209.960938 Z M 196.746094 204.519531 L 196.90625 204.714844 L 197.023438 204.359375 L 196.867188 204.203125 L 196.511719 204.203125 Z M 198.878906 211.066406 L 199.15625 211.144531 L 199.3125 211.027344 L 199.195312 210.910156 L 198.800781 210.910156 Z M 197.578125 205.265625 L 197.535156 205.503906 L 197.417969 205.621094 L 197.339844 205.742188 L 197.578125 206.015625 L 197.695312 205.898438 L 197.8125 205.660156 L 197.972656 205.542969 L 198.011719 205.148438 L 197.734375 205.542969 L 197.8125 205.265625 Z M 197.140625 204.871094 L 197.222656 205.070312 L 197.183594 205.265625 L 197.183594 205.464844 L 197.417969 205.347656 L 197.617188 205.1875 L 197.617188 205.03125 L 197.378906 205.03125 Z M 200.023438 194.695312 L 200.179688 194.417969 L 200.179688 193.867188 L 200.101562 193.550781 L 199.746094 192.960938 L 199.507812 192.722656 L 199.351562 192.644531 L 199.390625 192.605469 L 199.390625 192.367188 L 199.550781 192.210938 L 199.824219 192.128906 L 199.984375 191.972656 L 200.0625 191.894531 L 200.257812 191.777344 L 200.257812 191.382812 L 200.378906 191.183594 L 200.535156 190.988281 L 200.691406 191.027344 L 200.652344 190.949219 C 200.652344 190.867188 200.652344 190.75 200.652344 190.671875 L 200.851562 190.671875 L 200.890625 190.039062 L 200.773438 189.566406 L 201.125 189.371094 L 201.601562 189.488281 L 201.875 188.933594 L 201.996094 188.304688 L 202.152344 188.105469 L 202.351562 187.554688 L 201.679688 187.710938 L 201.324219 187.949219 L 200.730469 187.949219 L 200.613281 187.359375 L 200.140625 186.921875 L 199.429688 186.726562 L 199.273438 186.132812 L 199.113281 185.738281 L 198.957031 185.464844 L 198.71875 184.792969 L 198.367188 184.554688 L 197.773438 184.359375 L 197.261719 184.359375 L 196.746094 184.476562 L 196.433594 184.792969 L 196.707031 184.992188 L 196.707031 185.34375 L 196.472656 185.542969 L 196.117188 186.214844 L 196.117188 186.488281 L 195.5625 186.882812 L 195.089844 186.648438 L 194.617188 186.6875 L 194.421875 186.488281 L 194.183594 186.410156 L 193.59375 186.84375 L 193.039062 186.964844 L 192.683594 187.121094 L 192.171875 187.003906 L 191.816406 187.003906 L 191.578125 186.6875 L 191.183594 186.371094 L 190.792969 186.292969 L 190.277344 186.371094 L 189.882812 186.488281 L 189.332031 186.214844 L 189.253906 185.78125 L 188.777344 185.621094 L 188.425781 185.542969 L 187.988281 185.265625 L 187.59375 185.9375 L 187.753906 186.292969 L 187.359375 186.726562 L 186.765625 186.570312 L 186.371094 186.527344 L 186.097656 186.253906 L 185.664062 186.253906 L 185.308594 186.054688 L 184.714844 186.332031 L 183.964844 186.84375 C 183.769531 186.882812 183.570312 186.921875 183.375 187.003906 L 183.175781 186.609375 L 182.664062 186.6875 L 182.507812 186.488281 L 182.230469 186.371094 L 182.035156 186.015625 L 181.796875 185.898438 L 181.203125 186.054688 L 180.652344 185.699219 L 180.457031 186.015625 L 179.546875 184.359375 L 179.035156 183.847656 L 179.191406 183.648438 L 178.207031 184.28125 L 177.8125 184.320312 L 177.851562 183.964844 L 177.378906 183.726562 L 176.945312 183.886719 L 176.824219 183.175781 L 176.117188 183.019531 L 175.761719 183.292969 L 174.773438 183.53125 L 174.578125 183.6875 L 173.078125 183.925781 L 172.882812 184.203125 L 173.15625 184.675781 L 172.761719 184.832031 L 172.839844 185.03125 L 172.445312 185.34375 L 173.078125 185.78125 L 173.039062 186.054688 L 172.488281 186.015625 L 172.367188 186.214844 L 171.855469 185.898438 L 171.222656 185.898438 L 170.789062 186.175781 C 170.355469 185.9375 169.882812 185.699219 169.449219 185.464844 L 168.816406 185.464844 L 167.988281 186.175781 L 167.949219 186.648438 L 167.554688 186.292969 L 167.238281 186.964844 L 167.359375 187.082031 L 167.121094 187.554688 L 167.476562 187.949219 L 167.753906 187.949219 L 167.988281 188.34375 L 167.949219 188.660156 L 168.148438 188.738281 L 168.503906 188.621094 L 168.976562 188.382812 L 169.332031 188.539062 L 169.726562 188.5 L 169.804688 188.855469 L 169.726562 189.410156 L 169.371094 189.328125 L 169.015625 189.410156 L 169.015625 189.804688 L 168.621094 189.765625 L 168.621094 189.960938 L 168.855469 190.117188 L 169.054688 190.632812 L 169.527344 190.828125 L 169.605469 191.027344 L 169.488281 191.144531 L 169.527344 191.300781 L 169.644531 191.65625 L 169.683594 191.261719 L 170 191.144531 L 170.121094 191.460938 L 170.394531 191.777344 L 170.039062 191.933594 L 169.644531 191.816406 L 169.566406 192.25 L 169.882812 192.25 L 169.765625 192.605469 L 170.078125 192.761719 L 170.039062 193.273438 L 170.078125 193.667969 L 170.433594 193.589844 L 170.710938 193.273438 L 170.988281 193.273438 L 171.144531 193.195312 L 171.421875 193.234375 L 171.855469 193.472656 L 172.171875 193.511719 L 172.644531 193.945312 L 172.960938 193.945312 L 173 194.378906 C 172.921875 194.695312 172.839844 195.011719 172.722656 195.328125 L 172.882812 195.40625 L 172.722656 195.679688 L 172.839844 196.074219 L 172.882812 196.390625 L 173.195312 196.46875 L 173.234375 196.785156 L 172.882812 197.21875 L 173.078125 197.457031 L 173.234375 197.734375 L 173.628906 197.929688 L 173.628906 198.324219 L 173.828125 198.402344 L 173.867188 198.601562 L 173.277344 198.796875 L 173.117188 199.3125 L 173.667969 199.230469 L 174.300781 199.230469 L 175.050781 199.152344 L 175.367188 199.46875 L 175.484375 199.785156 L 175.761719 199.902344 L 176.234375 200.257812 L 176.351562 200.414062 L 176.15625 200.574219 L 176.667969 201.085938 L 176.945312 201.125 L 177.535156 200.886719 L 177.613281 201.28125 L 177.613281 201.796875 C 177.734375 202.230469 177.8125 202.703125 177.890625 203.136719 L 178.246094 203.691406 L 178.324219 203.964844 L 178.441406 204.480469 L 178.640625 204.871094 L 178.796875 205.070312 C 178.917969 205.386719 179.035156 205.703125 179.152344 206.054688 L 179.546875 206.449219 L 179.707031 206.332031 L 179.824219 206.054688 L 180.179688 205.9375 L 180.0625 205.820312 L 180.257812 205.503906 L 180.457031 205.503906 L 180.457031 204.832031 L 180.613281 204.4375 L 180.574219 204.085938 L 180.496094 203.53125 L 180.613281 203.214844 L 180.808594 203.175781 L 181.164062 203.019531 L 181.363281 202.902344 L 181.363281 202.703125 L 181.757812 202.425781 L 182.074219 202.152344 L 182.507812 201.636719 L 183.097656 201.363281 L 183.296875 201.125 L 183.257812 200.808594 L 183.730469 200.730469 L 184.003906 200.730469 L 184.046875 200.574219 L 184.203125 200.613281 L 184.320312 200.652344 L 184.359375 200.574219 L 184.519531 200.652344 L 184.636719 200.414062 L 184.597656 200.21875 L 184.953125 200.21875 L 185.109375 200.453125 L 185.269531 200.769531 L 185.308594 201.007812 L 185.425781 201.242188 L 185.664062 201.558594 L 185.898438 201.597656 L 185.859375 201.757812 L 186.175781 202.230469 L 186.253906 202.625 L 186.136719 203.136719 L 186.371094 203.214844 L 186.609375 203.253906 L 187.042969 202.980469 L 187.320312 202.78125 L 187.476562 203.136719 L 187.554688 203.648438 L 187.675781 204.125 L 187.832031 204.320312 L 187.792969 204.753906 L 187.910156 204.992188 L 187.792969 205.308594 L 187.832031 205.621094 L 187.714844 206.015625 L 187.714844 206.292969 L 187.792969 206.53125 L 187.871094 206.292969 C 188.03125 206.410156 188.148438 206.570312 188.265625 206.726562 L 188.34375 206.925781 L 188.503906 207.082031 L 188.582031 207.238281 L 188.542969 207.515625 L 188.699219 207.753906 L 188.738281 208.070312 L 188.976562 208.34375 L 189.015625 208.542969 L 189.488281 208.859375 L 189.882812 209.132812 L 190.160156 209.09375 L 190.160156 208.976562 L 190.003906 208.621094 L 189.84375 208.503906 L 189.804688 208.265625 L 189.765625 208.148438 L 189.804688 207.949219 L 189.765625 207.675781 L 189.609375 207.4375 L 189.371094 207.199219 L 189.292969 207.160156 L 189.09375 206.964844 L 188.859375 206.925781 L 188.621094 206.6875 L 188.542969 206.332031 L 188.382812 205.976562 L 188.109375 205.976562 L 188.070312 205.703125 C 188.1875 205.386719 188.304688 205.070312 188.425781 204.753906 L 188.464844 204.320312 L 188.820312 204.320312 L 188.777344 204.636719 L 189.132812 204.636719 L 189.488281 204.832031 L 189.6875 205.265625 L 189.84375 205.464844 L 190.160156 205.503906 L 190.4375 205.742188 L 190.316406 206.015625 L 190.476562 206.292969 L 190.988281 205.898438 L 191.304688 205.542969 L 191.777344 205.265625 L 192.09375 204.992188 L 192.132812 204.28125 L 191.972656 203.492188 L 191.738281 203.136719 L 191.382812 202.902344 C 191.144531 202.585938 190.949219 202.230469 190.710938 201.914062 L 190.792969 201.636719 L 191.105469 201.242188 L 191.621094 200.886719 L 191.816406 200.808594 L 192.367188 200.929688 L 192.289062 201.085938 L 192.410156 201.402344 L 192.644531 201.363281 L 192.761719 200.929688 L 193.199219 200.847656 L 193.75 200.652344 L 193.988281 200.453125 L 194.105469 200.613281 L 194.339844 200.414062 L 194.777344 200.375 C 195.171875 200.140625 195.523438 199.863281 195.878906 199.625 L 196.234375 199.113281 C 196.433594 198.757812 196.628906 198.402344 196.867188 198.046875 L 197.101562 198.007812 L 197.222656 197.652344 L 197.300781 197.296875 L 197.0625 197.140625 L 196.984375 196.902344 L 197.222656 196.785156 L 197.222656 196.429688 L 196.945312 196.074219 L 196.707031 195.640625 L 196.550781 195.167969 L 196.117188 194.890625 L 196.3125 194.539062 L 196.707031 194.300781 L 196.90625 194.023438 L 197.457031 193.867188 L 197.378906 193.589844 L 197.101562 193.589844 L 196.707031 193.3125 L 196.273438 193.667969 L 195.957031 193.511719 L 195.957031 193.273438 L 195.644531 193.195312 L 195.40625 192.878906 L 195.605469 192.644531 L 196 192.605469 L 196.234375 192.289062 L 196.667969 191.933594 L 197.023438 191.738281 L 197.222656 192.011719 L 196.90625 192.367188 L 196.984375 192.566406 L 196.789062 192.800781 L 197.222656 192.644531 L 197.496094 192.40625 L 198.050781 192.25 L 198.246094 192.40625 L 198.484375 192.445312 L 198.523438 192.523438 L 198.40625 192.800781 L 198.445312 192.878906 L 198.367188 192.960938 L 198.285156 193.195312 L 198.40625 193.273438 L 198.523438 193.3125 L 198.523438 193.394531 L 198.640625 193.355469 L 198.679688 193.273438 L 198.878906 193.355469 L 199.15625 193.789062 L 198.878906 193.867188 L 199.035156 194.378906 L 198.957031 194.734375 L 198.996094 195.011719 L 199.351562 194.972656 L 199.667969 194.773438 Z M 199.035156 213 L 198.761719 213 L 198.40625 213.078125 L 198.367188 213.15625 L 197.972656 213.316406 L 197.8125 213.550781 L 197.773438 213.671875 L 197.8125 213.710938 L 198.167969 213.628906 L 198.445312 213.316406 C 198.679688 213.238281 198.957031 213.117188 199.195312 213.039062 L 199.351562 212.921875 L 199.195312 212.882812 Z M 199.035156 213 " fill-opacity="1" fill-rule="nonzero"></path></g></svg> 