<?xml version="1.0" encoding="UTF-8" standalone="no"?> <svg xmlns="http://www.w3.org/2000/svg" xmlns:svg="http://www.w3.org/2000/svg" width="65.590828mm" height="70.358147mm" viewBox="0 0 65.590828 70.358147" version="1.1" id="svg1"><defs id="defs1"><clipPath id="clipPath8"><path d="M 991.74811,656.60815 H 1491.6667 V 1172.9167 H 991.74811 Z" transform="matrix(1.8707442,0,0,1.868516,-1322.9432,-709.58286)" clip-rule="evenodd" id="path8"></path></clipPath><clipPath id="clipPath10"><path d="M 118.75,118.75 H 2362.793 V 2333.3335 H 118.75 Z" transform="matrix(0.47999996,0,0,0.47999996,-408.10451,-712.99999)" clip-rule="evenodd" id="path10"></path></clipPath><clipPath id="clipPath12"><path d="M 118.75,118.75 H 2362.793 V 2333.3335 H 118.75 Z" transform="matrix(0.47999996,0,0,0.47999996,-500.68263,-639.00001)" clip-rule="evenodd" id="path12"></path></clipPath><clipPath id="clipPath14"><path d="m 1164.0464,1060.4168 h 150 v 118.1802 h -150 z" transform="matrix(0.66600003,0,0,0.65600755,-775.25493,-684.31814)" clip-rule="evenodd" id="path14"></path></clipPath></defs><g id="layer1" transform="translate(-64.558332,-29.368751)"><g id="layer2" transform="translate(-228.08428,-26.224071)"><path id="path7" d="m 769.88281,831.17188 -231.6914,620.33982 c -5.64063,15.1094 5.53125,31.2071 21.65625,31.2071 h 197.0625 c 9.79687,0 18.53125,-6.1797 21.79297,-15.418 l 55.03515,-155.7695 66.58985,-199.5118 c 1.57031,-4.6992 1.58593,-9.789 0.043,-14.5 L 813.50391,832.07031 c -6.80078,-20.78125 -35.97266,-21.3789 -43.6211,-0.89843 z M 1097.0508,517.28125 H 921.24219 c -15.89453,0 -27.04688,15.67969 -21.83985,30.6875 l 98.73047,284.64063 0.13282,-0.39844 161.99607,479.32036 56.168,155.9101 c 3.3086,9.1602 12,15.2774 21.75,15.2774 h 201.9687 c 16.1329,0 27.3008,-16.0977 21.6602,-31.1993 L 1118.7109,532.32031 c -3.3828,-9.03906 -12.0117,-15.03906 -21.6601,-15.03906" style="display:inline;fill:#ffffff;fill-opacity:1;fill-rule:nonzero;stroke:none" transform="matrix(0.04525828,0,0,0.04531225,279.87413,32.152796)" clip-path="url(#clipPath8)"></path><path id="path9" d="M 3.7275146,-45.869155 H 19.196264 V -0.00196894 H 3.7275146 Z m 74.7187474,0 V -0.00196894 H 65.7197 L 48.2822,-20.837906 V -0.00196894 H 33.211889 V -45.869155 H 45.938451 L 63.37595,-25.033218 V -45.869155 Z M 109.55368,1.0527185 c -3.79687,0 -7.5,-0.42187496 -11.109372,-1.26562493 -3.597656,-0.85546867 -6.55664,-2.01562497 -8.882812,-3.46874987 l 4.992187,-11.2499997 c 2.185547,1.265625 4.628906,2.285156 7.335937,3.046875 2.70117,0.75 5.30273,1.125 7.80469,1.125 2.13867,0 3.66211,-0.199219 4.57031,-0.609375 0.91992,-0.421875 1.38281,-1.042969 1.38281,-1.875 0,-0.949219 -0.60351,-1.669922 -1.80469,-2.15625 -1.20703,-0.480469 -3.18164,-1.007812 -5.92968,-1.570312 -3.53321,-0.75 -6.48047,-1.546875 -8.83594,-2.390625 -2.361328,-0.855469 -4.417968,-2.255859 -6.164062,-4.195313 -1.751953,-1.951171 -2.625,-4.582031 -2.625,-7.898437 0,-2.888671 0.802735,-5.513671 2.414063,-7.874999 1.623046,-2.355469 4.037109,-4.207032 7.242187,-5.554688 3.216792,-1.359375 7.125002,-2.039062 11.718752,-2.039062 3.14062,0 6.22265,0.345703 9.25781,1.03125 3.04687,0.673828 5.72461,1.664062 8.03906,2.976562 l -4.66406,11.203125 c -4.5,-2.279297 -8.75977,-3.421875 -12.77344,-3.421875 -3.97265,0 -5.95312,0.960937 -5.95312,2.882812 0,0.925782 0.58594,1.617188 1.75781,2.085938 1.18359,0.457031 3.12891,0.9375 5.83594,1.453125 3.49804,0.65625 6.44531,1.417968 8.83593,2.273437 2.40235,0.84375 4.48829,2.226562 6.25782,4.148437 1.78125,1.921875 2.67187,4.546875 2.67187,7.875 0,2.876953 -0.81445,5.4843749 -2.4375,7.8281248 -1.61133,2.3437499 -4.02539,4.2070311 -7.24219,5.5781248 -3.20507,1.3710937 -7.10156,2.0624999 -11.69531,2.0624999 z m 32.49024,-46.9218735 h 15.46875 v 45.86718606 h -15.46875 z m 59.83593,21.679687 h 13.42969 v 19.4062492 c -2.70703,1.875 -5.85352,3.3222655 -9.44531,4.33593738 -3.58008,0.99609371 -7.09571,1.49999992 -10.54688,1.49999992 -4.89258,0 -9.28125,-1.01953119 -13.17187,-3.0468749 -3.89063,-2.0273436 -6.9375,-4.863281 -9.14063,-8.5078126 -2.20312,-3.656249 -3.30469,-7.804687 -3.30469,-12.445312 0,-4.623046 1.10157,-8.753905 3.30469,-12.398437 2.20313,-3.656249 5.2793,-6.498046 9.23438,-8.531249 3.96679,-2.027344 8.4375,-3.046875 13.40625,-3.046875 4.5,0 8.53125,0.761719 12.09375,2.273437 3.5625,1.5 6.52148,3.697266 8.88281,6.585938 l -9.89063,8.695312 c -2.89453,-3.357422 -6.32226,-5.039063 -10.28906,-5.039063 -3.41016,0 -6.11719,1.03125 -8.13281,3.09375 -2.00391,2.050781 -3,4.839844 -3,8.367187 0,3.457032 0.99023,6.234375 2.97656,8.34375 1.98047,2.097656 4.62891,3.140625 7.94531,3.140625 1.96875,0 3.84961,-0.375 5.64844,-1.125 z m 71.81836,-21.679687 V -0.00196894 H 258.22946 V -16.900406 H 243.93258 V -0.00196894 H 228.46383 V -45.869155 h 15.46875 v 16.242187 h 14.29688 v -16.242187 z m 23.95898,11.976562 H 284.2275 v -11.976562 h 42.32813 v 11.976562 h -13.42969 v 33.89062406 h -15.46875 z m 56.54883,34.9453115 c -3.79688,0 -7.5,-0.42187496 -11.10938,-1.26562493 C 339.49899,-1.0683751 336.54,-2.2285314 334.21383,-3.6816563 l 4.99219,-11.2499997 c 2.18554,1.265625 4.6289,2.285156 7.33593,3.046875 2.70118,0.75 5.30274,1.125 7.80469,1.125 2.13867,0 3.66211,-0.199219 4.57031,-0.609375 0.91993,-0.421875 1.38282,-1.042969 1.38282,-1.875 0,-0.949219 -0.60352,-1.669922 -1.80469,-2.15625 -1.20703,-0.480469 -3.18164,-1.007812 -5.92969,-1.570312 -3.5332,-0.75 -6.48047,-1.546875 -8.83594,-2.390625 -2.36132,-0.855469 -4.41796,-2.255859 -6.16406,-4.195313 -1.75195,-1.951171 -2.625,-4.582031 -2.625,-7.898437 0,-2.888671 0.80274,-5.513671 2.41406,-7.874999 1.62305,-2.355469 4.03711,-4.207032 7.24219,-5.554688 3.2168,-1.359375 7.125,-2.039062 11.71875,-2.039062 3.14063,0 6.22266,0.345703 9.25781,1.03125 3.04688,0.673828 5.72461,1.664062 8.03907,2.976562 l -4.66407,11.203125 c -4.5,-2.279297 -8.75976,-3.421875 -12.77343,-3.421875 -3.97266,0 -5.95313,0.960937 -5.95313,2.882812 0,0.925782 0.58594,1.617188 1.75781,2.085938 1.1836,0.457031 3.12891,0.9375 5.83594,1.453125 3.49805,0.65625 6.44531,1.417968 8.83594,2.273437 2.40234,0.84375 4.48828,2.226562 6.25781,4.148437 1.78125,1.921875 2.67188,4.546875 2.67188,7.875 0,2.876953 -0.81446,5.4843749 -2.4375,7.8281248 -1.61133,2.3437499 -4.02539,4.2070311 -7.24219,5.5781248 -3.20508,1.3710937 -7.10156,2.0624999 -11.69531,2.0624999 z m 0,0" style="display:inline;fill:#ffffff;fill-opacity:1;fill-rule:nonzero;stroke:none" aria-label="INSIGHTS" transform="matrix(0.17638889,0,0,0.17638889,291.98512,125.76528)" clip-path="url(#clipPath10)"></path><path id="path11" d="M 34.993135,-7.9922237 H 17.555636 L 14.485323,-3.6494996e-5 H -1.2412387 L 18.797823,-45.867222 H 34.00876 L 54.071259,-3.6494996e-5 H 38.063447 Z M 30.72751,-19.125036 26.274385,-30.679723 21.82126,-19.125036 Z M 80.198211,1.054651 c -3.796875,0 -7.499999,-0.42187502 -11.109374,-1.26562499 C 65.491181,-1.0664427 62.532196,-2.2265989 60.206025,-3.6797239 l 4.992187,-11.2499991 c 2.185547,1.265625 4.628906,2.285156 7.335937,3.046874 2.701172,0.75 5.302734,1.125 7.804687,1.125 2.138672,0 3.66211,-0.199218 4.570313,-0.609375 0.919921,-0.421875 1.382812,-1.042968 1.382812,-1.874999 0,-0.949219 -0.603516,-1.669922 -1.804687,-2.15625 -1.207032,-0.480469 -3.181641,-1.007813 -5.929688,-1.570313 -3.533203,-0.75 -6.480468,-1.546875 -8.835937,-2.390625 -2.361328,-0.855468 -4.417968,-2.255859 -6.164062,-4.195312 -1.751953,-1.951172 -2.625,-4.582031 -2.625,-7.898437 0,-2.888672 0.802734,-5.513672 2.414062,-7.875 1.623047,-2.355469 4.03711,-4.207031 7.242188,-5.554687 3.216796,-1.359375 7.124999,-2.039063 11.718749,-2.039063 3.140625,0 6.222656,0.345703 9.257812,1.03125 3.046875,0.673828 5.72461,1.664063 8.039063,2.976563 l -4.664063,11.203124 c -4.5,-2.279297 -8.759765,-3.421875 -12.773437,-3.421875 -3.972656,0 -5.953125,0.960938 -5.953125,2.882813 0,0.925781 0.585938,1.617187 1.757813,2.085937 1.183594,0.457031 3.128906,0.9375 5.835937,1.453125 3.498047,0.65625 6.445312,1.417969 8.835937,2.273438 2.402344,0.843749 4.488281,2.226562 6.257813,4.148437 1.781254,1.921875 2.671874,4.546875 2.671874,7.875 0,2.876953 -0.81445,5.4843743 -2.437499,7.8281243 -1.611328,2.3437499 -4.025391,4.207031 -7.242188,5.5781247 -3.205078,1.37109374 -7.101562,2.0625 -11.695312,2.0625 z m 32.490229,-46.921873 h 15.46875 V -3.6494996e-5 h -15.46875 z m 60.75,37.8749983 h -17.4375 L 152.93063,-3.6494996e-5 H 137.20407 L 157.24313,-45.867222 h 15.21094 l 20.0625,45.867185505004 h -16.00782 z m -4.26562,-11.1328123 -4.45313,-11.554687 -4.45312,11.554687 z m 0,0" style="display:inline;fill:#ffffff;fill-opacity:1;fill-rule:nonzero;stroke:none" aria-label="ASIA" transform="matrix(0.17638889,0,0,0.17638889,308.31486,112.7125)" clip-path="url(#clipPath12)"></path><path id="path13" d="M 75.199997,79.900002 74.300003,79 l 0.1,-0.800003 0.900001,-0.1 L 77,78 78,78.199997 78.800003,78 l 0.800003,-1 -0.199997,-0.199997 -1,0.699997 H 77.200012 L 75.900009,77.4 75.100006,77.099996 74.200005,77.799993 74,78.300003 l -0.5,1.5 -0.1,0.800003 L 73,81.300003 73.300003,82 h 0.400002 l 0.199997,1 -0.300004,0.900002 L 74,84.200005 l 0.599998,-0.1 c 0,-0.900001 -0.1,-1.800003 -0.1,-2.599998 l 0.699997,-0.300003 -0.1,1 0.699997,0.599998 -0.1,0.400002 L 76,83.500008 l 1,-0.400002 -0.5,0.800003 0.400002,0.400002 0.5,-0.300003 V 83.300011 L 76.5,82 l 0.199997,-0.300003 -1,-1.300003 0.900001,-0.400002 L 77,79.399994 l 0.400002,0.1 0.1,-0.5 L 75.6,79.299997 75.199999,79.900004 Z M 75.599998,87.099998 75,86.799995 74.099998,87 v 0.400002 l 1.300004,0.1 1.5,-0.300003 L 77,86.599998 76.199997,87 75.599998,87.1 Z M 75.400002,54.799999 76,53 76.199997,52.299999 75.699997,52 74.899994,52.799999 74.300003,54 l 0.1,0.799999 0.5,0.900002 z M 79.800003,66.099998 79.5,65.699997 h -1 L 79.099998,66.5 v 0.400002 L 78.5,66.800002 78.699997,67.400001 79,67.5 v 0.699997 L 79.5,68 79.300003,67.400002 v -0.300004 l 0.800003,0.300004 z m -5.700005,-3.399997 0.199997,0.5 0.5,0.599998 0.1,-0.400001 0.300003,0.2 -0.300003,0.3 -0.1,0.399997 0.5,0.199997 0.900002,-0.199997 0.599998,0.599999 0.300003,-0.400002 0.400002,0.5 0.800003,0.5 0.1,-0.5 -0.300004,8e-6 0.1,-0.599998 L 76.899994,63.800003 76.5,64 76,63.799999 75.699997,63 75.899994,62.200001 76.499992,61.900002 76.799995,61 76.499992,60.200001 76.699989,59.799999 76.599991,59.5 76.299988,59.799999 75.699989,59.5 h -0.599998 l -0.300003,1 -0.1,1.599998 -0.400001,-0.299999 z m -1,24.100002 -0.599998,0.1 L 72.099998,86.599998 71.800003,87 h -0.599998 l -0.300003,0.599998 h 0.5 C 72,87.5 72.599998,87.400002 73.300003,87.299995 Z m -13.199996,-4 0.299999,-1.300003 -0.5,-0.599998 -0.700001,-0.1 -0.400002,-0.599998 -0.2,-0.699997 H 57.999996 L 57.399998,79.100005 57.799999,78.300002 57,77.800003 56.599998,77 55.799999,76.300003 h -1 l -1,-1.099998 -0.599998,-0.400002 -0.799999,-0.699997 -0.900002,-1 c -0.700001,-0.1 -1.5,-0.199997 -2.200001,-0.199997 l 0.1,0.5 1.099998,1.099999 0.799999,0.599998 0.5,0.900002 0.900002,0.599998 0.400001,0.800003 0.3,0.900002 0.900001,0.800003 0.799999,1.400001 0.5,0.800003 0.8,0.800003 0.400001,0.599999 1.299999,0.800003 0.8,0.800003 h 1.099998 l -0.09999,-1.500023 z m 17.799995,-13.100006 -0.5,0.300003 -0.599999,0.300003 -0.400001,0.900002 0.199997,0.300003 0.699997,-0.599999 h 0.5 l 0.300003,-0.400001 0.599998,0.5 -0.300003,0.5 0.300003,0.699997 1.199997,0.599998 0.300003,-0.5 -0.300003,-0.699997 0.5,-0.5 0.400002,1 0.300003,-0.900001 c -0.1,-0.699997 -0.199997,-1.400002 -0.300003,-2.099999 l -0.800003,-0.5 0.1,0.800003 h -0.699997 l -0.199997,0.5 -0.800003,0.300003 -0.499992,-0.500015 z M 67.099998,86.099998 66.699997,85.400002 64.900002,85 l -0.199997,0.400002 -1.900002,-0.1 L 62.599998,85 l -0.400001,-0.1 -0.799999,-0.4 -1.200001,-0.1 -0.700001,1 0.900002,0.1 0.2,0.400002 1.8,0.400001 0.400001,-0.1 0.700001,0.1 1.199997,0.400002 0.900001,0.199997 1,0.1 L 67.5,87 68.599998,87.400002 69.799995,87 68.599998,86.400002 Z m 6.099999,-17.799995 0.699997,-0.599998 -0.199997,-0.800003 -0.5,1 -0.599999,0.699996 -0.699996,0.599999 -0.5,0.800003 1.300003,-1 z M 34.700001,69.099998 34,68.5 l -0.5,1.699997 0.200001,1.5 0.5,0.800003 0.900001,-0.199997 L 35.500004,72 l 0.200001,-1.099998 -0.5,-1.099999 z M 71.699997,78.400002 72,77.700005 l 1.199997,-0.1 -1.099999,-0.900001 0.199997,-0.5 -0.699997,-1 0.599999,-0.900002 L 72.899994,74 l -0.199997,-0.5 0.699997,-0.1 0.1,-0.400002 c -0.5,-0.199997 -1,-0.400002 -1.5,-0.599998 v -0.400002 l -0.5,-0.5 h -0.400001 l -0.5,0.800003 L 69.599998,73 68.699997,73.599998 68.299995,74 l -0.5,0.599998 -0.699997,0.800004 -1.199996,0.199996 L 65.5,75.799995 65.300003,76.699997 64.5,76.899994 63.799999,76.599991 63.200001,77.299988 63.099998,78 l 0.1,0.900002 0.5,0.900001 0.5,0.300003 0.199997,1.400002 0.800003,0.1 0.699997,-0.1 0.400001,0.5 1.199997,-0.400002 0.5,0.300003 0.699997,0.1 0.400002,0.599998 1.099998,-0.5 0.1,0.400002 0.400001,-1.5 v -1 l 1,-0.699997 8e-6,-0.900009 z m -7,-19.800004 0.400001,-0.5 -0.199996,-0.400001 H 64.300003 L 63.200001,58 l -0.5,0.5 v 0.900002 L 63.5,59.700001 l 0.900002,-0.5 z M 74.099998,87.900002 73.199997,88.099998 74.5,88.799995 h 0.400002 l 0.1,-0.300003 L 74.6,88.199989 74.1,87.900002 Z m 13.5,-45.100003 0.5,-0.299999 0.400002,0.400002 0.599998,-0.700001 -0.1,-0.5 -0.699997,-0.299999 -0.5,0.599998 -0.599998,-0.1 -0.599999,0.7 v 0.599999 l 0.699997,0.299999 0.299995,-0.700001 z m 7.800004,38.299999 -1.099999,-0.199996 c -0.5,-0.300004 -1.099998,-0.5 -1.599998,-0.699997 h -0.900002 l -1.199997,0.599998 -0.800003,1.099999 -1,-0.599999 L 88.5,79.700005 l -0.199997,-0.400002 -1.599998,-0.400001 -0.5,0.300003 -1.400002,0.199997 0.400002,0.5 0.900001,0.199996 0.400002,0.599999 h 1.5 l 0.1,0.300003 h -0.699997 l -1.099998,0.400002 0.800003,0.5 v 0.400001 l 0.199997,0.400002 0.400001,-0.1 L 88,82 l 1.5,0.900002 0.800003,0.1 2,0.900002 0.5,0.900001 0.300003,1.099999 -0.599998,0.300003 L 92,87 h 1.300003 L 93.5,86.699997 l 1,0.199997 0.900002,0.800003 c 0,-2.199997 0,-4.399994 0,-6.599999 z M 83.699997,81.300003 H 82.5 l -0.199997,0.599999 H 83 l 0.599998,-0.1 0.800004,0.1 0.900001,0.400001 L 84.900002,81.5 Z m 4.900001,3 -0.199996,0.400002 0.1,0.800003 0.5,-0.699997 v -0.5 L 88.900002,84 Z m 6.099999,-51.500004 -0.400002,0.799999 0.199997,1.5 -0.599998,1.599999 c -0.699997,0.599998 -1.400002,1.200001 -2.099999,1.799999 L 91.099998,37.899998 90,40.099998 89,39.799999 87,40.200001 86.199997,41 l -1,0.599998 -0.5,0.8 -1,0.400001 0.400001,0.799999 0.599999,0.3 L 84.5,45 85,45.5 85.699997,45 l 0.699997,-2 -1,-0.900002 h 1.199997 L 87.799988,41.5 89.599991,41.200001 v 0.900001 l 0.699997,0.5 1.400001,-1.400001 1.800003,-0.1 1.300003,-0.599998 0.5,-0.900002 L 95,39 95.400002,38 v -1.299999 l 0.900001,-1.299999 V 34.300003 L 95.700005,32.500004 Z M 99.800003,28.4 99.099998,29 l -0.699996,-0.299999 -0.800004,-0.5 -1.199996,-1.5 -0.300004,1.1 -0.300003,1.9 -1.099998,0.1 -0.5,1.100001 0.1,1.400001 h 1.099999 l 0.5,-1.5 1.599998,0.9 0.900002,-1.4 1.5,-0.4 z m -17.100006,50.799997 -0.400002,-0.5 0.199997,-0.599999 0.5,0.1 0.1,-0.900002 -0.1,-0.400001 -0.599998,-0.1 -0.1,-0.599998 -0.300003,0.400001 -0.199997,0.800004 0.300003,1.300003 L 82.5,79.300003 Z M 75.099998,65.5 75.5,66 75.800003,65.099998 75.400002,64.699997 H 74.5 Z M 80.5,82.099998 l 0.699997,0.199997 0.400001,-0.300003 -0.300003,-0.300003 h -1 z M 77.199997,67.400002 77.099998,68 76.799995,68.300003 76.599998,68.600006 77.199997,69.300003 77.5,69 l 0.300003,-0.599998 0.400002,-0.300004 0.1,-1 -0.699997,1 0.199997,-0.699996 h -0.600006 z m -1.099999,-1 0.199997,0.5 -0.1,0.5 v 0.5 l 0.599998,-0.300004 0.5,-0.400001 v -0.400002 h -0.599998 l -0.599999,-0.399993 z m 7.300004,-25.800004 0.400001,-0.7 v -1.400002 l -0.199997,-0.799999 -0.900001,-1.5 -0.599999,-0.599999 -0.400001,-0.2 0.1,-0.1 V 34.7 l 0.400002,-0.400002 0.699997,-0.200001 0.400001,-0.400001 0.199995,-0.2 0.5,-0.299999 v -1 l 0.300003,-0.5 0.400002,-0.5 0.400001,0.1 L 85,31.1 c 0,-0.2 0,-0.5 0,-0.7 h 0.5 l 0.1,-1.600001 -0.300003,-1.200001 0.900002,-0.5 1.199997,0.3 0.699997,-1.4 0.300003,-1.6 0.400001,-0.5 0.5,-1.4 -1.699997,0.4 -0.900001,0.6 h -1.5 L 84.900002,22 83.700005,20.9 81.900002,20.4 81.5,18.9 l -0.400002,-1 -0.400001,-0.700001 -0.599999,-1.7 -0.900001,-0.6 -1.5,-0.5 h -1.300003 l -1.300003,0.3 -0.800003,0.8 L 75,16 v 0.9 L 74.400002,17.4 73.5,19.1 v 0.700001 l -1.400002,1 -1.199996,-0.6 -1.199997,0.1 -0.5,-0.5 L 68.600006,19.6 l -1.5,1.100001 L 65.699997,21 64.799995,21.4 63.499996,21.1 H 62.599995 L 62,20.299999 61,19.5 60,19.299999 58.700001,19.5 l -1,0.299999 L 56.299999,19.099998 56.099998,18 l -1.2,-0.4 L 54,17.4 l -1.099998,-0.700001 -1,1.700001 0.400001,0.899999 -1,1.100001 -1.500004,-0.4 -1,-0.1 -0.700001,-0.700001 H 47 l -0.900002,-0.5 -1.5,0.700001 -1.900001,1.299999 c -0.5,0.1 -1,0.200001 -1.5,0.399999 l -0.5,-1 -1.299999,0.200001 L 39,19.799999 38.299999,19.5 l -0.5,-0.9 -0.599998,-0.299999 -1.5,0.4 -1.400002,-0.9 -0.5,0.799999 L 31.5,14.400001 30.200001,13.1 30.6,12.6 l -2.5,1.600001 -1,0.1 0.100001,-0.899999 L 26,12.8 24.9,13.2 24.6,11.4 22.799999,11 21.9,11.7 19.4,12.3 18.9,12.7 15.099999,13.3 14.6,14 l 0.7,1.2 -1,0.399999 0.2,0.5 -1,0.799999 1.6,1.1 L 15,18.700001 13.6,18.6 13.3,19.1 12,18.299999 H 10.4 L 9.3000002,19 C 8.1999998,18.4 7,17.799999 5.9000001,17.200001 H 4.3000002 L 2.2000003,19 l -0.1,1.200001 -1,-0.9 L 0.30000001,21 0.60000002,21.299999 0,22.5 l 0.90000004,1 H 1.6 l 0.6,1 L 2.1,25.299999 2.6,25.5 3.5000002,25.200001 4.7000003,24.6 5.6000004,25 l 1,-0.1 0.1999998,0.899999 -0.1999998,1.4 -0.9000001,-0.200001 -0.9000001,0.200001 v 1 l -1,-0.100001 v 0.5 l 0.5999999,0.4 0.5,1.299999 1.2000003,0.5 0.1999998,0.5 L 6,31.6 6.1,32 l 0.3000002,0.900002 0.1,-1 0.8000002,-0.3 0.3000002,0.8 0.6999998,0.799999 -0.9000001,0.400001 -1,-0.299999 -0.2,1.099999 H 7 L 6.6999998,35.300003 7.5,35.700005 7.4,37.000004 7.5,38 8.3999996,37.799999 9.1000004,37 H 9.8000002 L 10.2,36.799999 l 0.7,0.1 1.1,0.599998 0.8,0.1 1.2,1.099998 h 0.8 l 0.100001,1.099999 c -0.2,0.799999 -0.4,1.599998 -0.7,2.400001 L 14.6,42.399994 l -0.399999,0.700001 0.3,1 0.1,0.799999 0.800001,0.200001 0.1,0.799999 -0.9,1.099998 0.5,0.599999 0.4,0.700001 1,0.5 v 1 l 0.5,0.2 0.1,0.5 L 15.6,51 15.200001,52.299999 16.6,52.099998 h 1.600001 l 1.899999,-0.2 0.8,0.799999 0.299999,0.799999 0.700001,0.299999 1.2,0.900002 0.3,0.400001 -0.5,0.400002 1.299999,1.299999 0.700001,0.1 1.5,-0.599999 0.2,1 v 1.299999 c 0.3,1.099999 0.5,2.3 0.700001,3.400002 l 0.9,1.400002 0.200001,0.699996 0.299999,1.300004 0.5,1 0.399999,0.5 c 0.3,0.800003 0.600001,1.599998 0.9,2.5 l 1,1 0.4,-0.300004 0.300001,-0.699996 0.900001,-0.300004 -0.299999,-0.300003 0.5,-0.800003 h 0.5 v -1.699997 l 0.400002,-1 -0.1,-0.900001 L 33.900002,63 l 0.299999,-0.799999 0.5,-0.1 0.900001,-0.400001 0.5,-0.299999 v -0.5 l 1,-0.700001 0.8,-0.700001 L 39,58.200001 40.5,57.5 41,56.900002 l -0.1,-0.8 1.2,-0.2 h 0.700001 l 0.1,-0.400002 0.400001,0.1 0.299999,0.1 0.1,-0.200001 0.400001,0.200001 0.3,-0.599999 -0.1,-0.5 h 0.900002 L 45.600005,55.2 46,56 46.1,56.599998 46.4,57.199997 47,58 l 0.599998,0.1 -0.1,0.400002 0.799999,1.200001 0.200001,1 L 48.200001,62 l 0.599998,0.200001 0.599999,0.1 L 50.499996,61.6 51.199997,61.1 51.599998,62 51.799999,63.299999 52.099998,64.5 52.5,65 52.4,66.099998 52.699999,66.699997 52.4,67.5 l 0.1,0.800003 -0.299999,1 V 70 l 0.200001,0.599998 0.2,-0.599998 c 0.400002,0.300003 0.700001,0.699997 1,1.099998 l 0.200001,0.5 L 54.200005,72 l 0.2,0.400002 -0.1,0.699996 0.400001,0.599999 0.1,0.800003 0.599998,0.699997 0.1,0.5 1.200001,0.800003 1,0.699997 0.7,-0.1 v -0.300003 l -0.400001,-0.9 L 57.600002,75.599991 57.5,75 l -0.1,-0.300003 0.1,-0.5 L 57.400002,73.5 57,72.900002 l -0.599998,-0.599999 -0.200001,-0.1 -0.5,-0.5 -0.599999,-0.1 -0.599998,-0.599998 -0.200001,-0.900002 -0.400001,-0.900001 h -0.700001 l -0.1,-0.699997 c 0.3,-0.800003 0.599999,-1.599999 0.900002,-2.400002 l 0.1,-1.099998 h 0.900002 l -0.1,0.800003 h 0.900002 l 0.900001,0.5 0.5,1.099998 0.400002,0.5 0.799999,0.1 0.700001,0.599998 -0.299999,0.699997 L 59.200012,70 l 1.299999,-1 0.8,-0.900002 1.2,-0.699996 0.8,-0.699997 0.1,-1.800003 L 63,62.900002 62.400002,62 61.5,61.400002 c -0.599998,-0.8 -1.099998,-1.700001 -1.700001,-2.5 L 60,58.200001 l 0.799999,-1 1.299999,-0.900002 0.5,-0.200001 1.400002,0.3 -0.200001,0.400001 0.299999,0.799999 0.599999,-0.1 L 65,56.400002 l 1.099998,-0.200001 1.400002,-0.5 0.599998,-0.5 0.300004,0.400001 0.599998,-0.5 1.099998,-0.1 C 71.099998,54.400003 72,53.700003 72.900002,53.1 l 0.900001,-1.299999 c 0.5,-0.900001 1,-1.799999 1.599999,-2.700001 L 76,49.000004 76.300003,48.100002 76.5,47.200001 75.900002,46.799999 75.700005,46.200001 76.300003,45.900002 V 45 L 75.600006,44.099998 75.000008,43 l -0.400002,-1.200001 -1.099998,-0.700001 0.5,-0.900001 1,-0.599999 0.5,-0.7 1.400001,-0.400002 -0.199997,-0.700001 H 76.000015 L 75,37.099998 73.900002,38 73.099998,37.599998 V 37 L 72.299995,36.799999 71.699997,36 l 0.5,-0.599998 1,-0.1 0.599998,-0.799999 1.099999,-0.900002 0.900001,-0.5 0.5,0.700001 -0.800003,0.900002 0.199997,0.5 -0.5,0.599998 1.099999,-0.400001 0.699997,-0.599999 1.400001,-0.400001 0.5,0.400001 0.599999,0.1 0.1,0.2 -0.300003,0.700001 0.1,0.200001 -0.199997,0.200001 L 79,36.799999 79.300003,37 l 0.300003,0.1 v 0.200001 l 0.300003,-0.1 L 80,37 80.5,37.200001 81.199997,38.299999 80.5,38.5 l 0.400002,1.299999 -0.199997,0.900002 0.1,0.700001 0.900002,-0.1 0.800003,-0.5 0.899994,-0.200005 z M 80.900002,87 h -0.699997 l -0.900002,0.199997 -0.1,0.199997 -1,0.400001 -0.400002,0.599999 -0.1,0.300003 0.1,0.1 L 78.700003,88.6 79.4,87.799997 C 79.999998,87.6 80.700003,87.299997 81.300001,87.1 l 0.400002,-0.300003 -0.400002,-0.1 z" style="display:inline;fill:#ffffff;fill-opacity:1;fill-rule:nonzero;stroke:none" transform="matrix(0.12712711,0,0,0.12906355,318.55593,88.320528)" clip-path="url(#clipPath14)"></path></g></g></svg> 